<?xml version="1.0" encoding="utf-8"?>
<!-- Generator: Adobe Illustrator 27.9.0, SVG Export Plug-In . SVG Version: 6.00 Build 0)  -->
<svg version="1.1" id="Layer_1" xmlns="http://www.w3.org/2000/svg" xmlns:xlink="http://www.w3.org/1999/xlink" x="0px" y="0px"
	 viewBox="0 0 486 486.7" style="enable-background:new 0 0 486 486.7;" xml:space="preserve">
<style type="text/css">
	.st0{fill:url(#SVGID_1_);}
</style>
<linearGradient id="SVGID_1_" gradientUnits="userSpaceOnUse" x1="243.8955" y1="469.6667" x2="243.8955" y2="14.5424">
	<stop  offset="0" style="stop-color:#FFFFFF"/>
	<stop  offset="1" style="stop-color:#FFF162"/>
</linearGradient>
<path class="st0" d="M405.7,214.9c-15.4,23.9-16.8,30.8-32.8,23.8c-2.3-22.6-10.6-43.4-23.4-60.7c3.1-12.5,4.6-8.7,21.2-5.9
	c24.3,4,12.2-33.9,12.2-33.9s-3.3,28.6-32.6,8.4c-8.3-5.7-15.9,3.2-20.4,10.5c-12-10.2-26.1-18.1-41.4-23.1
	c6.1-17.8,12-49.1-10.9-53.6c-73.8-14.6-36-65.7-36-65.7S155.3,56,209,88.5c29.8,18,36.4,18.2,24.3,40.5c-18,2.5-34.8,8.8-49.4,18.2
	c-3.3-7.3-9-14.8-17.7-10.5C131,153.9,134,124.1,134,124.1s-21.2,37.5,5.1,36.4c17-0.7,20-4.1,20.7,6.9
	c-11.5,12.4-20.5,27.2-26.1,43.6c-15.1-5.1-53.4-12.6-58.2,8.8C61.8,281.5,13.1,250,13.1,250s39.6,72,70.4,27.1
	c18.4-26.9,17.1-31.2,43.8-17.8c1.4,21.6,8.4,41.7,19.6,58.9c-7,2.5-14,7.1-11.1,15.4c12.4,34.4-15.4,29-15.4,29s33.2,23.3,35-1.5
	c1.3-17.6-2.3-19.7,12.3-18.5c18.6,16.8,42.4,28.1,68.7,31c7.9,16,1.4,17.1-23,31.8c-46.7,28.2,28.3,64.3,28.3,64.3
	s-32.9-44.5,31.3-57.2c18.8-3.7,17.3-27.9,13.3-43.5c15.7-4.8,30.1-12.7,42.5-22.9c5.3,6.6,14.8,15.5,22.5,7.9
	c25.8-25.3,33.1,2.4,33.1,2.4s6.5-39.7-16.8-31.3c-14,5-16.4,8.7-20,1.5c9.4-12.1,16.5-25.9,20.9-41c16.2,5,40.8,8.5,44.8-10.4
	c13.6-64.9,61.3-31.7,61.3-31.7S436,167.7,405.7,214.9z M251,334.3c-46.7,0-84.5-37.8-84.5-84.5s37.8-84.5,84.5-84.5
	s84.5,37.8,84.5,84.5S297.7,334.3,251,334.3z"/>
</svg>
